<svg xmlns="http://www.w3.org/2000/svg" viewBox="0 0 562.17 344.8"><defs><style>.cls-1{fill:#fefefe;}.cls-2{fill:#83bce6;}.cls-3{fill:#84bde7;}.cls-4{fill:#9dc13f;}.cls-5{fill:#9ec240;}.cls-6{fill:#9dc140;}.cls-7{fill:#f3f2f2;}.cls-8{fill:#838282;}.cls-9{fill:#818080;}.cls-10{fill:#8c8c8c;}.cls-11{fill:#898888;}.cls-12{fill:#7f7f7f;}.cls-13{fill:#7e7e7e;}.cls-14{fill:#969696;}.cls-15{fill:#7b7b7b;}.cls-16{fill:#848484;}.cls-17{fill:#7a7979;}.cls-18{fill:#8d8d8d;}.cls-19{fill:#999898;}.cls-20{fill:#a4a4a4;}.cls-21{fill:#a7a7a7;}.cls-22{fill:#9d9c9c;}.cls-23{fill:#767575;}.cls-24{fill:#9e9d9e;}.cls-25{fill:#6a6a6a;}.cls-26{fill:#a1a0a1;}.cls-27{fill:#f9fbf2;}.cls-28{fill:#f4f3f3;}</style></defs><title>College-Logo</title><g id="Layer_2" data-name="Layer 2"><g id="Layer_1-2" data-name="Layer 1"><path class="cls-1" d="M562.17,344.8H0V0H562.17ZM425.27,274l1.28-1,1.61-2.86c.41-5.86.86-11.73,1.1-17.6,0-.51-1.39-1.08-2.14-1.62l-.66,2.9L426.38,269c-.29.72-.58,1.43-.88,2.15-.22.46-.44.93-.65,1.4l-2.45.88-2.14-.06L418.5,273l-1.26-1.21c-.4-1.05-.79-2.11-1.19-3.16.12-5.42.34-10.84.3-16.26,0-1.41-.93-2.36-2.2-.6h0c-.35.54-1,1.09-1,1.64q-.12,6.76,0,13.54c0,.62.55,1.22.85,1.84,0,.35.05.71.08,1.06l.46,1.53,3.72,3,5.39,0Zm40.14,39V313c2.79.63,3.88-1.52,4.84-3.33,2.15-4.05,2-8.38.84-12.71-.79-2.87-2-5.41-5.12-6.49-1.85,0-3.93-.53-5.5.14-7.71,3.29-8.22,17.31-1,22.48l6,.67Zm-91.79-16.74.23-1.68L370,290.8c-1.79-1.52-3.59-2.3-5.43-.08l-1.34.66c-4.54,3.05-6.12,10.55-3.6,16.88,1.19,3,3,5.17,6.39,5.68l1.27.15,1.18,0c3.7-.07,4.43-.55,4.58-2.63l-8.31.37c-4.68-5.61-5-14.35-.85-19.72l1.49-.44,3.25.15c.86.93,1.66,1.92,2.59,2.76A19.36,19.36,0,0,0,373.62,296.21Zm70.29,12.4.12-1.32a66.69,66.69,0,0,0,.5-6.9c-.07-3-.48-6-.75-9l-1.51-.25c-.29.36-.84.72-.85,1.09-.05,6.54-.06,13.09,0,19.63,0,.69.7,2,1.12,2,3.3.16,6.61.09,9.92.09,0-.53.06-1.05.1-1.58l-8.44-.71-.25-1.24C443.9,309.8,443.9,309.21,443.91,308.61Zm44.6,3.19-6.17.36-3.84-6.08-.57-3.29c0-.93,0-1.86,0-2.79l.57-2.69c.63-2.5,1.49-4.83,4.33-5.63,2.91.26,5.83.43,6.63,4.17.07.32,1.36.38,2.09.56a5.89,5.89,0,0,0,.21-2.24c-1.33-3.81-6.95-5.54-10.52-3.31a7.29,7.29,0,0,0-4.78,6.22l-.53,2.13v5.61l.57,2a7.64,7.64,0,0,0,4.3,6.22,7.39,7.39,0,0,0,8.44.13c1.92-.38,2.71-1.5,2.6-3.49-.14-2.65-.07-5.31-.1-8,.22-2.49-1.75-1.6-2.76-1.55-1.78.1-4.22-1.1-5.22,2.1a8.84,8.84,0,0,0,2.48.44c2.81-.38,3.33,1.06,3.16,3.45a25.68,25.68,0,0,0,.35,4.26ZM353.59,301h0c-.38-.28-.73-.74-1.15-.82-1.95-.34-4.91.08-5.63-1-1-1.51-.35-4.14-.4-6.29v-.61l7.76-.57.29-1.16-10.39.48-.18,7.18,0,10.07v4.63l1.55.87,8.62-.07.87-.81a17.22,17.22,0,0,0-2.77-.75c-1.94-.22-3.89-.29-5.84-.42l-.19-8.84,7.39-.53Zm151.18-38.68-5.89-.72-.84-.13a3.06,3.06,0,0,0-.51-.26c.08-2.28-.65-5.17.48-6.66.94-1.24,4.07-.76,6.18-1.23.64-.14,1.13-.93,1.69-1.41-.59-.43-1.16-1.19-1.77-1.22a65.13,65.13,0,0,0-7.78,0c-.56,0-1.06,1-1.58,1.61l-.05,1.25c-.16,3.79-.43,7.58-.44,11.37,0,2.75.32,5.51.49,8.26l1.79.9a40.47,40.47,0,0,0,1-5.93c.16-4.63.06-4.57,4.62-4.72C503.07,263.45,503.91,262.73,504.77,262.33Zm-66.28,11.89,1.23-1.26c.15-3,.37-5.94.44-8.91.07-3.48,0-7,0-10.32l5.43-1,.4-.92c-.53-.29-1.06-.81-1.59-.83-3.82-.1-7.65-.13-11.47-.06-.35,0-1,.86-.95,1.28a1.71,1.71,0,0,0,1.18,1.09c1.52.27,3.07.34,4.6.48l0,19.9Zm13-1.47a.55.55,0,0,0-.24-.28c.08-.61.21-1.23.24-1.84.1-2.06-.61-4.83.46-6s3.91-.77,5.95-1.19c.57-.12,1.05-.7,1.57-1.07-.5-.39-1-1.1-1.51-1.11-1.95,0-3.91.14-5.87.24l-.64-.3-.41-1.36v-5l.12-1.41a1,1,0,0,0,.31-.3c2.28.08,4.55.27,6.82.19.61,0,1.2-.82,1.79-1.27-.57-.46-1.13-1.3-1.72-1.33a41.14,41.14,0,0,0-7.77.06,3.54,3.54,0,0,0-2.38,2.46c-.21,6.43-.15,12.87,0,19.31,0,.56,1,1.11,1.57,1.66,1.75,0,3.52.22,5.26.11a47.06,47.06,0,0,0,4.82-.81Zm35.77-18.57-1.88-1.85a5.47,5.47,0,0,0-7.57-.65c-6.74,3.63-7.41,16-1.19,21.79,2.14,3,4.37,3.4,6.86,1.06q2.32-2.22,4.64-4.45l1.05-3.37c0-2.49,0-5,0-7.48Zm-51.19,43.16-.57-1.42c-.58-3.18-2.61-4.87-5.65-5.54-1.1-1.37-2.19-1.52-3.24.06a7.27,7.27,0,0,0-5.81,5c-1.86,4.84-2.26,14,3.67,17.79,2.47,1.48,4.93,1.68,7.36-.1,3.21-1.71,4.2-4.67,4.48-8,0-1.87,0-3.73,0-5.6C436.23,298.79,436.15,298.06,436.06,297.34Zm-57.5-6.19a10.07,10.07,0,0,0-.84,2.67c-.08,5.19-.15,10.4,0,15.59.05,1.54,1.13,4.4,1.43,4.36,2.7-.37,1.49-2.69,1.53-4.21.23-8-1.67-6.73,7.22-6.88,1.87,0,2.63.75,2.56,2.6-.08,2.28-.11,4.58,0,6.86,0,.63.77,1.21,1.18,1.82.46-.61,1.29-1.21,1.3-1.82q.15-10,0-20c0-.61-.84-1.21-1.29-1.81-.43.59-1.18,1.16-1.23,1.79-.15,2,0,3.95-.06,5.92,0,.76-.43,2.14-.72,2.15a66.78,66.78,0,0,1-8.25-.09c-.29,0-.66-1.41-.69-2.18-.09-2,.09-3.95-.09-5.91,0-.43-1.1-.76-1.69-1.13A.51.51,0,0,0,378.56,291.15ZM253.65,233.52a18.44,18.44,0,0,0-.74-3.28,77.85,77.85,0,0,0-15.26-24.08c-10.94-11.8-24.14-20.4-38.45-27.57a254.69,254.69,0,0,0-49.28-18.86c-12.72-3.35-25.68-5.78-38.37-9.22-15.7-4.26-29.71-11.63-40.33-24.44a30.22,30.22,0,0,0-2.42-2.38,15.7,15.7,0,0,0,1.25,5.38c.26.68.54,1.35.86,2,7.18,14.47,18.67,24.43,33.54,30,13.26,5,27,8.67,40.46,13.17,10,3.31,19.66,7.24,28.44,13.12a20.08,20.08,0,0,1,2.5,2.43c-.76.38-1,.58-1.12.55l-41.36-6.59c-13.3-2.11-26.61-4.11-39.88-6.33C84,175.86,74.92,173,66.78,167.69c-2.39-1.55-4.58-3.43-7.57-5.69a13.87,13.87,0,0,0,.86,3c1.94,2.94,3.62,6.15,6,8.65,6.55,6.79,15.05,10.52,23.75,13.67,16.72,6.07,34.21,9.2,51.48,13.15,7.76,1.77,15.42,4,23.06,6.28,2.23.65,4.25,2.05,6.37,3.1l-.32,1.05c-1.78,0-3.57,0-5.36,0-.92,0-1.86-.29-2.77-.23-4.86.33-9.75.47-14.56,1.15-8.6,1.23-17.24,2.38-25.69,4.31-13.87,3.15-27.67,6.58-42,5-8.33-.91-16.26-3.23-22.92-8.69-2.2-1.81-4.32-3.73-6.47-5.6l-.89.36c.45,1.53.88,3.07,1.38,4.59C55.45,225.09,66,231,78.49,234.07c13.3,3.27,26.85,1.89,40.32,1.25,12.74-.61,25.45-2,38.2-2.2,21-.39,42-.19,63.06-.15,5.5,0,11,.43,16.5.53S247.71,233.52,253.65,233.52Zm-6-136.33a11.39,11.39,0,0,0,.87-1.93c1.2-6.68,3-13.1,6.74-18.91A21,21,0,0,0,257.84,70c1.46-6.07.73-12.12-.49-18.18-2.23-11-13.56-20.75-24.81-21.2-7.25-.29-13.45,2.41-18.68,7.05-9.1,8.06-11.54,20.92-6.39,32.86,7.09,16.45,18.41,30.23,28.77,44.58a204.5,204.5,0,0,1,18.19,29.31c7.15,14.54,12.53,29.71,13.88,45.89.79,9.45.23,19-.17,28.53-.18,4.21-1.45,8.38-2.4,13.51a33.93,33.93,0,0,0,3.08-3.3c2.65-4,5.43-7.86,7.76-12a66.31,66.31,0,0,0,8-43.52c-3.48-22.39-14.5-41.11-29.65-57.56C247,107.43,238.51,99.41,231,90.57a132.39,132.39,0,0,1-15-21.3c-4.5-8.08-5.41-17-.76-25.67,2.55-4.77,8.72-8,13.49-7.24,7,1.12,11.27,4.9,12.4,11.32,1.37,7.74,2.64,15.51,3.75,23.29a44,44,0,0,1,.16,8C244.75,85,244.57,91.07,247.66,97.19Zm-9.8,172.87a11.23,11.23,0,0,1,.75,1.83c1.64,11.49,3.32,23,4.85,34.48.82,6.16.7,6.18,6.85,6.18,1,0,2.09-.08,3.12,0,2.63.26,3.54-.69,3.08-3.42-1.3-7.56-2.41-15.14-3.57-22.71q-2.56-16.77-5.09-33.54c-.27-1.83-1.14-2.72-3.12-2.64-2.91.12-5.84-.15-8.73.13a4,4,0,0,0-3,2c-4.34,12.89-8.49,25.85-12.7,38.79a23.16,23.16,0,0,1-1,2.29,9,9,0,0,1-.7-1.21Q213.24,275.13,207.9,258c-2.44-7.75-2.47-7.74-10.71-7.74-.93,0-1.88.08-2.81,0-2.07-.22-2.9.62-3.21,2.73-2.13,14.14-4.41,28.26-6.62,42.39-.86,5.49-1.65,11-2.57,17.15,3.31,0,6.2-.17,9.05.05,2.54.2,3.31-1.1,3.56-3.22q2-16.17,3.92-32.34c.2-1.67.27-3.35.4-5a2.77,2.77,0,0,1,1.76,1.58q5,15.75,9.83,31.51c2.29,7.4,2.26,7.4,9.93,7.46.63,0,1.37.24,1.85,0,1.08-.56,2.65-1.17,2.95-2.11,3.85-12.07,7.52-24.2,11.24-36.31C236.81,273,237.22,271.92,237.86,270.06Zm53.3,15c1.67-.59,2.85-1,4-1.42,7.62-3,11.4-8.43,11.51-15.87.15-9.65-4.63-15.57-14.05-16.79-8-1-16.16-.38-24.25-.51-1.9,0-2.11,1.09-2.11,2.65q0,28.38,0,56.78c0,1.8.51,2.75,2.47,2.67,2.28-.08,4.57,0,6.86,0,2.05,0,3-.75,2.93-3-.09-5.93,0-11.85.07-17.78,0-1.32,0-2.64,0-4a4.68,4.68,0,0,1,2.1,1.83c4.65,6.89,9.26,13.8,13.95,20.65.61.89,1.59,2.09,2.44,2.13,4.3.22,8.62.1,13.69.1ZM204.45,165A52.09,52.09,0,0,0,183,146.25C167.72,139,152.17,132.38,137,125A139.4,139.4,0,0,1,87.88,86a12,12,0,0,0-1.64-1.46,3.25,3.25,0,0,0,.16,2c.19.59.31,1.2.5,1.8,6.26,19.84,18.15,35.34,36.86,44.55,11.66,5.74,24.12,9.89,36.3,14.52,10.43,4,21,7.5,31.47,11.47C195.72,160.49,199.66,162.74,204.45,165ZM173.78,299.87c-6.94,2.55-13.68,3.74-20.18-.28s-9.33-10.41-9.74-17.83a20,20,0,0,1,5-15c6.61-7.38,14.78-7.28,23.45-4.25a81.68,81.68,0,0,1,.95-8.31c.47-2.13-.46-3-2.2-3.29a56.14,56.14,0,0,0-7.4-1c-9.07-.41-17.29,1.75-24,8.27-7.14,6.95-9.85,15.68-9.12,25.25.86,11.25,4.85,21.13,15.82,26.48,8.1,4,16.51,4.23,25.17,1.79,2.9-.82,4-2,3.19-5A58.74,58.74,0,0,1,173.78,299.87ZM123.34,53.27l-.66.2a4.28,4.28,0,0,0-.12,1.16C124,61.51,125,68.53,127,75.23c3.91,13.08,10.28,25,21.4,33.26,9.8,7.25,20.48,13.3,30.85,19.77,7.46,4.67,15.23,8.87,22.48,13.82,4.66,3.18,8.64,7.36,13.18,11.31-.21-.82-.3-1.4-.5-1.94a44.71,44.71,0,0,0-13.52-19.16c-11.42-9.61-23.13-18.94-35.23-27.68C151.2,94.19,140.08,81,130.77,66.06,128.16,61.89,125.81,57.54,123.34,53.27ZM165,40.08c-.47.32-.72.39-.8.55a8.26,8.26,0,0,0-.52,1.44c-2.52,10.48-1.26,20.63,2.94,30.43s11.51,17.66,18.89,25.34c12.1,12.58,24,25.38,35.77,38.24,2.75,3,4.86,6.57,7.56,10.3a10.54,10.54,0,0,0,.37-1.65,5.93,5.93,0,0,0-.16-2.16c-2.43-5.83-4.37-11.94-7.51-17.36C213.62,111.6,203.23,99.8,193,87.88,180.91,73.69,170.16,58.66,165,40.08ZM401.34,295.63l.87-.21a16.52,16.52,0,0,1,1.3,1.95c2.4,4.83,4.71,9.71,7.19,14.5.46.87,1.58,1.4,2.39,2.08.48-.91,1.34-1.81,1.36-2.73.13-6.14.11-12.28,0-18.42,0-.72-.72-1.43-1.11-2.15-.42.71-1.21,1.41-1.22,2.13-.07,4.57,0,9.15.05,13.73a17.5,17.5,0,0,1-.55,2.74c-1-1.72-1.47-2.58-1.91-3.47-2.2-4.47-4.28-9-6.63-13.39-.45-.86-1.88-1.19-2.86-1.77-.45.9-1.26,1.78-1.29,2.69-.13,4.68-.06,9.37-.06,14.05,0,1.67-.11,3.34.05,5,.05.54.8,1,1.23,1.53.39-.51,1-1,1.12-1.53a10.87,10.87,0,0,0,0-2.49ZM352,269.21l-1.19.26c-.45-.88-.91-1.75-1.35-2.63-2.3-4.65-4.53-9.33-6.95-13.91-.44-.85-1.65-1.29-2.5-1.92-.43.62-1.23,1.23-1.24,1.86-.1,6.65-.09,13.3,0,19.94,0,.54.65,1.07,1,1.61.41-.59,1.09-1.15,1.16-1.78a42.75,42.75,0,0,0,.05-4.67V256.5l1.08-.12c.48.86,1,1.69,1.45,2.58,2.27,4.55,4.43,9.16,6.83,13.64.46.86,1.81,1.25,2.75,1.85a8.5,8.5,0,0,0,1-2.58q.19-9.18.13-18.35a7.91,7.91,0,0,0-1-2.6l-1.18.26Zm14.27-17.46c-1.82.19-4-.19-5.39.69-3.13,2-2.81,6.68.41,9,1.94,1.38,4.09,2.45,6.15,3.66s2.87,3.37,1.87,5.32c-.64,1.26-2.55,2.21-4.08,2.6-1.27.32-2.79-.47-4.21-.58a6.81,6.81,0,0,0-2.06.47c.49.54,1,1.54,1.46,1.55,2.74,0,5.7.46,8.19-.4,4.69-1.62,5.26-7.47,1.27-10.47a43.79,43.79,0,0,0-5.56-3.41c-2-1.08-3.54-2.46-3-4.88S364,252.38,366.26,251.75Zm35.81,1.68c0,6.48-.05,12.6.06,18.72,0,.8.83,1.59,1.28,2.38.53-.81,1.5-1.61,1.53-2.43.14-4.89.16-9.78,0-14.67-.07-2.64-.08-4.86,3.61-4.31.48.07,1.07-.66,1.62-1-.58-.42-1.14-1.18-1.73-1.2-3.22-.11-6.45-.12-9.67,0-.69,0-1.36.7-2,1.08l.21.89Zm93.32,37.4a8.54,8.54,0,0,0,.58,1.56c3.79,5.91,7.24,11.9,6,19.4-.1.61.84,1.38,1.29,2.08.42-.84,1.29-1.76,1.17-2.52-1-6.42,1.34-11.78,4.9-16.83.8-1.14,1.46-2.38,2.19-3.57-5.05.9-4.76,6.58-8.46,9.17a47.91,47.91,0,0,0-3.15-5.4C498.75,293.23,498.76,290.28,495.39,290.83Zm-155,.71c-2.3-1.71-11.71-1.64-13.57.11a5.55,5.55,0,0,0,1.8.42c3.34-.51,4,1.13,3.91,4.12-.23,5.08-.18,10.18-.1,15.26,0,.82.75,1.63,1.15,2.44.49-.78,1.36-1.55,1.39-2.34.13-4.26.06-8.53.06-12.79C335,292.93,335,292.93,340.41,291.54Zm41.75-38.05a16.12,16.12,0,0,0,3.14-.23,12.35,12.35,0,0,0,2.35-1.3c-.73-.41-1.46-1.13-2.21-1.17-3-.13-6-.14-9,0-.91.05-1.79.81-2.68,1.24l.36.88a5.25,5.25,0,0,0,1.72.36c3-.44,3.7.89,3.58,3.69-.22,4.86-.15,9.75,0,14.62,0,1,.88,2,1.35,3,.47-1,1.34-2,1.36-2.95C382.23,265.72,382.16,259.82,382.16,253.49Zm-52.6,9.17c0,3.12-.11,6.24.08,9.35.05.86,1,1.66,1.49,2.49.49-.76,1.37-1.51,1.38-2.28q.18-9.35,0-18.7c0-.83-.86-1.65-1.32-2.48-.55.86-1.51,1.69-1.57,2.59C329.43,256.63,329.56,259.65,329.56,262.66Zm63.72.31h0c0-3.12.07-6.24-.05-9.35a6.86,6.86,0,0,0-1-2.28c-.48.76-1.37,1.51-1.38,2.27q-.16,9.36,0,18.7c0,.71.78,1.4,1.2,2.1.42-.7,1.16-1.38,1.19-2.09C393.35,269.21,393.28,266.09,393.28,263Z"/><path class="cls-2" d="M253.65,233.52c-5.94,0-11.51.07-17.08,0s-11-.52-16.5-.53c-21,0-42-.24-63.06.15-12.75.24-25.46,1.59-38.2,2.2-13.47.64-27,2-40.32-1.25-12.52-3.08-23-9-27.38-22.28-.5-1.52-.93-3.06-1.38-4.59l.89-.36c2.15,1.87,4.27,3.79,6.47,5.6,6.66,5.46,14.59,7.78,22.92,8.69,14.38,1.57,28.18-1.86,42.05-5,8.45-1.93,17.09-3.08,25.69-4.31,4.81-.68,9.7-.82,14.56-1.15.91-.06,1.85.21,2.77.23,1.79,0,3.58,0,5.36,0l.32-1.05c-2.12-1-4.14-2.45-6.37-3.1-7.64-2.25-15.3-4.51-23.06-6.28-17.27-3.95-34.76-7.08-51.48-13.15-8.7-3.15-17.2-6.88-23.75-13.67-2.41-2.5-4.09-5.71-6-8.65a13.87,13.87,0,0,1-.86-3c3,2.26,5.18,4.14,7.57,5.69,8.14,5.28,17.22,8.17,26.71,9.75,13.27,2.22,26.58,4.22,39.88,6.33l41.36,6.59c.16,0,.36-.17,1.12-.55a20.08,20.08,0,0,0-2.5-2.43c-8.78-5.88-18.49-9.81-28.44-13.12-13.45-4.5-27.2-8.19-40.46-13.17-14.87-5.59-26.36-15.55-33.54-30-.32-.65-.6-1.32-.86-2a15.7,15.7,0,0,1-1.25-5.38,30.22,30.22,0,0,1,2.42,2.38c10.62,12.81,24.63,20.18,40.33,24.44,12.69,3.44,25.65,5.87,38.37,9.22a254.69,254.69,0,0,1,49.28,18.86c14.31,7.17,27.51,15.77,38.45,27.57a77.85,77.85,0,0,1,15.26,24.08A18.44,18.44,0,0,1,253.65,233.52Z"/><path class="cls-3" d="M247.66,97.19C244.57,91.07,244.75,85,245,78.92a44,44,0,0,0-.16-8c-1.11-7.78-2.38-15.55-3.75-23.29-1.13-6.42-5.4-10.2-12.4-11.32-4.77-.77-10.94,2.47-13.49,7.24-4.65,8.67-3.74,17.59.76,25.67a132.39,132.39,0,0,0,15,21.3c7.54,8.84,16,16.86,23.92,25.42,15.15,16.45,26.17,35.17,29.65,57.56a66.31,66.31,0,0,1-8,43.52c-2.33,4.15-5.11,8.05-7.76,12a33.93,33.93,0,0,1-3.08,3.3c.95-5.13,2.22-9.3,2.4-13.51.4-9.5,1-19.08.17-28.53-1.35-16.18-6.73-31.35-13.88-45.89a204.5,204.5,0,0,0-18.19-29.31C225.88,100.79,214.56,87,207.47,70.56c-5.15-11.94-2.71-24.8,6.39-32.86,5.23-4.64,11.43-7.34,18.68-7.05,11.25.45,22.58,10.19,24.81,21.2,1.22,6.06,1.95,12.11.49,18.18a21,21,0,0,1-2.57,6.32c-3.7,5.81-5.54,12.23-6.74,18.91A11.39,11.39,0,0,1,247.66,97.19Z"/><path class="cls-4" d="M237.86,270.06c-.64,1.86-1.05,2.95-1.39,4.06-3.72,12.11-7.39,24.24-11.24,36.31-.3.94-1.87,1.55-2.95,2.11-.48.26-1.22,0-1.85,0-7.67-.06-7.64-.06-9.93-7.46q-4.87-15.77-9.83-31.51a2.77,2.77,0,0,0-1.76-1.58c-.13,1.68-.2,3.36-.4,5q-1.94,16.17-3.92,32.34c-.25,2.12-1,3.42-3.56,3.22-2.85-.22-5.74-.05-9.05-.05.92-6.16,1.71-11.66,2.57-17.15,2.21-14.13,4.49-28.25,6.62-42.39.31-2.11,1.14-2.95,3.21-2.73.93.09,1.88,0,2.81,0,8.24,0,8.27,0,10.71,7.74q5.37,17.09,10.69,34.18a9,9,0,0,0,.7,1.21,23.16,23.16,0,0,0,1-2.29c4.21-12.94,8.36-25.9,12.7-38.79a4,4,0,0,1,3-2c2.89-.28,5.82,0,8.73-.13,2-.08,2.85.81,3.12,2.64q2.53,16.77,5.09,33.54c1.16,7.57,2.27,15.15,3.57,22.71.46,2.73-.45,3.68-3.08,3.42-1-.1-2.08,0-3.12,0-6.15,0-6,0-6.85-6.18-1.53-11.51-3.21-23-4.85-34.48A11.23,11.23,0,0,0,237.86,270.06Z"/><path class="cls-5" d="M291.16,285.08l19.61,27.48c-5.07,0-9.39.12-13.69-.1-.85,0-1.83-1.24-2.44-2.13-4.69-6.85-9.3-13.76-13.95-20.65a4.68,4.68,0,0,0-2.1-1.83c0,1.32,0,2.64,0,4,0,5.93-.16,11.85-.07,17.78,0,2.23-.88,3-2.93,3-2.29,0-4.58-.06-6.86,0-2,.08-2.48-.87-2.47-2.67q.06-28.4,0-56.78c0-1.56.21-2.67,2.11-2.65,8.09.13,16.28-.52,24.25.51,9.42,1.22,14.2,7.14,14.05,16.79-.11,7.44-3.89,12.83-11.51,15.87C294,284.12,292.83,284.49,291.16,285.08Zm-13.07-16.3h0a10.87,10.87,0,0,0,0,2.49c.56,2.23-1.59,5.46,1.34,6.57,2.14.81,4.9,0,7.38-.08a2.72,2.72,0,0,0,.61-.15c5-1.63,7.25-5.26,6.67-10.56-.47-4.26-3.56-6.81-8.75-7.2-.82-.06-1.66-.1-2.49-.11-4.82,0-4.82,0-4.8,4.68Z"/><path class="cls-3" d="M204.45,165c-4.79-2.3-8.73-4.55-12.92-6.15-10.43-4-21-7.5-31.47-11.47-12.18-4.63-24.64-8.78-36.3-14.52-18.71-9.21-30.6-24.71-36.86-44.55-.19-.6-.31-1.21-.5-1.8a3.25,3.25,0,0,1-.16-2A12,12,0,0,1,87.88,86,139.4,139.4,0,0,0,137,125c15.22,7.36,30.77,14,46.05,21.23A52.09,52.09,0,0,1,204.45,165Z"/><path class="cls-6" d="M173.78,299.87a58.74,58.74,0,0,0,.94,6.84c.79,3-.29,4.21-3.19,5-8.66,2.44-17.07,2.17-25.17-1.79-11-5.35-15-15.23-15.82-26.48-.73-9.57,2-18.3,9.12-25.25,6.71-6.52,14.93-8.68,24-8.27a56.14,56.14,0,0,1,7.4,1c1.74.31,2.67,1.16,2.2,3.29a81.68,81.68,0,0,0-.95,8.31c-8.67-3-16.84-3.13-23.45,4.25a20,20,0,0,0-5,15c.41,7.42,3.15,13.74,9.74,17.83S166.84,302.42,173.78,299.87Z"/><path class="cls-3" d="M123.34,53.27c2.47,4.27,4.82,8.62,7.43,12.79,9.31,14.93,20.43,28.13,34.87,38.55,12.1,8.74,23.81,18.07,35.23,27.68a44.71,44.71,0,0,1,13.52,19.16c.2.54.29,1.12.5,1.94-4.54-3.95-8.52-8.13-13.18-11.31-7.25-5-15-9.15-22.48-13.82-10.37-6.47-21-12.52-30.85-19.77-11.12-8.23-17.49-20.18-21.4-33.26-2-6.7-3-13.72-4.42-20.6a4.28,4.28,0,0,1,.12-1.16Z"/><path class="cls-3" d="M165,40.08c5.18,18.58,15.93,33.61,28.06,47.8,10.19,11.92,20.58,23.72,28.48,37.33,3.14,5.42,5.08,11.53,7.51,17.36a5.93,5.93,0,0,1,.16,2.16,10.54,10.54,0,0,1-.37,1.65c-2.7-3.73-4.81-7.31-7.56-10.3-11.8-12.86-23.67-25.66-35.77-38.24-7.38-7.68-14.63-15.4-18.89-25.34s-5.46-20-2.94-30.43a8.26,8.26,0,0,1,.52-1.44C164.26,40.47,164.51,40.4,165,40.08Z"/><path class="cls-7" d="M483.47,274.53c-2.49,2.34-4.72,2-6.86-1.06l1.75-.33c-4.44-4.78-3.4-10.39-2.63-15.77.24-1.69,2.07-3.14,3.17-4.7l4.24-.26h.95l0,0c0,.19-.18.47-.1.55,2.7,3,3.27,6.66,3.18,10.45s-.47,7.74-4.47,9.91Z"/><path class="cls-8" d="M401.34,295.63v14.23a10.87,10.87,0,0,1,0,2.49c-.14.57-.73,1-1.12,1.53-.43-.51-1.18-1-1.23-1.53-.16-1.65-.05-3.32-.05-5,0-4.68-.07-9.37.06-14.05,0-.91.84-1.79,1.29-2.69,1,.58,2.41.91,2.86,1.77,2.35,4.39,4.43,8.92,6.63,13.39.44.89.95,1.75,1.91,3.47a17.5,17.5,0,0,0,.55-2.74c0-4.58-.12-9.16-.05-13.73,0-.72.8-1.42,1.22-2.13.39.72,1.1,1.43,1.11,2.15.08,6.14.1,12.28,0,18.42,0,.92-.88,1.82-1.36,2.73-.81-.68-1.93-1.21-2.39-2.08-2.48-4.79-4.79-9.67-7.19-14.5a16.52,16.52,0,0,0-1.3-1.95Z"/><path class="cls-9" d="M352,269.21v-18l1.18-.26a7.91,7.91,0,0,1,1,2.6q.08,9.16-.13,18.35a8.5,8.5,0,0,1-1,2.58c-.94-.6-2.29-1-2.75-1.85-2.4-4.48-4.56-9.09-6.83-13.64-.44-.89-1-1.72-1.45-2.58l-1.08.12V268a42.75,42.75,0,0,1-.05,4.67c-.07.63-.75,1.19-1.16,1.78-.35-.54-1-1.07-1-1.61-.06-6.64-.07-13.29,0-19.94,0-.63.81-1.24,1.24-1.86.85.63,2.06,1.07,2.5,1.92,2.42,4.58,4.65,9.26,6.95,13.91.44.88.9,1.75,1.35,2.63Z"/><path class="cls-10" d="M379,290.92c.59.37,1.66.7,1.69,1.13.18,2,0,3.94.09,5.91,0,.77.4,2.16.69,2.18a66.78,66.78,0,0,0,8.25.09c.29,0,.68-1.39.72-2.15.09-2-.09-4,.06-5.92.05-.63.8-1.2,1.23-1.79.45.6,1.28,1.2,1.29,1.81q.14,10,0,20c0,.61-.84,1.21-1.3,1.82-.41-.61-1.14-1.19-1.18-1.82-.14-2.28-.11-4.58,0-6.86.07-1.85-.69-2.63-2.56-2.6-8.89.15-7-1.09-7.22,6.88,0,1.52,1.17,3.84-1.53,4.21-.3,0-1.38-2.82-1.43-4.36-.19-5.19-.12-10.4,0-15.59a10.07,10.07,0,0,1,.84-2.67c.18,1.85.5,3.69.52,5.54.08,5.2,0,10.4,0,15.6a198.14,198.14,0,0,0,.61-20.08C379.72,291.78,379.25,291.35,379,290.92Z"/><path class="cls-9" d="M366.26,251.75c-2.28.63-4.37,1-4.94,3.53s1,3.8,3,4.88a43.79,43.79,0,0,1,5.56,3.41c4,3,3.42,8.85-1.27,10.47-2.49.86-5.45.44-8.19.4-.5,0-1-1-1.46-1.55a6.81,6.81,0,0,1,2.06-.47c1.42.11,2.94.9,4.21.58,1.53-.39,3.44-1.34,4.08-2.6,1-1.95.26-4.07-1.87-5.32s-4.21-2.28-6.15-3.66c-3.22-2.3-3.54-7-.41-9C362.24,251.56,364.44,251.94,366.26,251.75Z"/><path class="cls-11" d="M402.07,253.43l-5.09-.56-.21-.89c.67-.38,1.34-1,2-1.08,3.22-.12,6.45-.11,9.67,0,.59,0,1.15.78,1.73,1.2-.55.36-1.14,1.09-1.62,1-3.69-.55-3.68,1.67-3.61,4.31.13,4.89.11,9.78,0,14.67,0,.82-1,1.62-1.53,2.43-.45-.79-1.27-1.58-1.28-2.38C402,266,402.07,259.91,402.07,253.43Z"/><path class="cls-12" d="M429.84,290.38c3,.67,5.07,2.36,5.65,5.54l.57,1.42c.09.72.17,1.45.25,2.18,0,1.87,0,3.73,0,5.6-.28,3.35-1.27,6.31-4.48,8l-1-1c4.45-4.68,3.67-10.23,2.55-15.79a5.46,5.46,0,0,0-5.35-4.7c-3-.08-4.82,2.1-5.17,4.89a38.11,38.11,0,0,0-.21,10.17c.3,2,2.19,3.74,3.36,5.6l-1.55.94c-5.93-3.83-5.53-12.95-3.67-17.79a7.27,7.27,0,0,1,5.81-5Z"/><path class="cls-13" d="M495.39,290.83c3.37-.55,3.36,2.4,4.49,3.89a47.91,47.91,0,0,1,3.15,5.4c3.7-2.59,3.41-8.27,8.46-9.17-.73,1.19-1.39,2.43-2.19,3.57-3.56,5.05-5.92,10.41-4.9,16.83.12.76-.75,1.68-1.17,2.52-.45-.7-1.39-1.47-1.29-2.08,1.27-7.5-2.18-13.49-6-19.4A8.54,8.54,0,0,1,495.39,290.83Z"/><path class="cls-8" d="M340.41,291.54c-5.37,1.39-5.37,1.39-5.36,7.22,0,4.26.07,8.53-.06,12.79,0,.79-.9,1.56-1.39,2.34-.4-.81-1.14-1.62-1.15-2.44-.08-5.08-.13-10.18.1-15.26.13-3-.57-4.63-3.91-4.12a5.55,5.55,0,0,1-1.8-.42C328.7,289.9,338.11,289.83,340.41,291.54Z"/><path class="cls-14" d="M382.16,253.49c0,6.33.07,12.23-.06,18.13,0,1-.89,2-1.36,2.95-.47-1-1.32-2-1.35-3-.14-4.87-.21-9.76,0-14.62.12-2.8-.6-4.13-3.58-3.69a5.25,5.25,0,0,1-1.72-.36l-.36-.88c.89-.43,1.77-1.19,2.68-1.24,3-.16,6-.15,9,0,.75,0,1.48.76,2.21,1.17a12.35,12.35,0,0,1-2.35,1.3A16.12,16.12,0,0,1,382.16,253.49ZM380.69,273l.38-.12V252.6h-.38Z"/><path class="cls-11" d="M329.56,262.66c0-3-.13-6,.07-9,.06-.9,1-1.73,1.57-2.59.46.83,1.31,1.65,1.32,2.48q.17,9.34,0,18.7c0,.77-.89,1.52-1.38,2.28-.52-.83-1.44-1.63-1.49-2.49C329.45,268.9,329.56,265.78,329.56,262.66Z"/><path class="cls-15" d="M393.28,263c0,3.12.07,6.24-.06,9.35,0,.71-.77,1.39-1.19,2.09-.42-.7-1.19-1.39-1.2-2.1q-.15-9.35,0-18.7c0-.76.9-1.51,1.38-2.27a6.86,6.86,0,0,1,1,2.28c.12,3.11.05,6.23.05,9.35Z"/><path class="cls-16" d="M459.52,313.1c-7.27-5.17-6.76-19.19,1-22.48,1.57-.67,3.65-.13,5.5-.14l-1.24,1.2c-4.41-.09-6.41,1.29-7,5.68a32.24,32.24,0,0,0,.07,9.56c.33,1.91,2.09,3.58,3.21,5.35Z"/><path class="cls-17" d="M366.05,313.94c-3.35-.51-5.2-2.7-6.39-5.68-2.52-6.33-.94-13.83,3.6-16.88l.66.75c-4.2,5.37-3.83,14.11.85,19.72C365.2,312.55,365.62,313.25,366.05,313.94Z"/><path class="cls-13" d="M464.73,291.68l1.24-1.2c3.08,1.08,4.33,3.62,5.12,6.49,1.19,4.33,1.31,8.66-.84,12.71-1,1.81-2.05,4-4.84,3.33,0-.22,0-.45-.05-.67,4-2.89,3.9-7.25,3.79-11.44C469.06,297.28,468.57,293.62,464.73,291.68Z"/><path class="cls-18" d="M444.14,311.64l8.44.71c0,.53-.07,1-.1,1.58-3.31,0-6.62.07-9.92-.09-.42,0-1.11-1.29-1.12-2-.08-6.54-.07-13.09,0-19.63,0-.37.56-.73.85-1.09.18,1.62.5,3.25.52,4.88.07,4.84,0,9.69.08,14.53,0,.84.76,1.67,1.16,2.5l.73-.41Z"/><path class="cls-9" d="M478.9,252.67c-1.1,1.56-2.93,3-3.17,4.7-.77,5.38-1.81,11,2.63,15.77l-1.75.33c-6.22-5.81-5.55-18.16,1.19-21.79Z"/><path class="cls-16" d="M343.93,312.92v-4.63l0-10.07.18-7.18,10.1.68-7.76.57a47.61,47.61,0,0,0-.52,7.78c0,.46,2.8.81,4.33,1a21.13,21.13,0,0,0,3.37-.07h0l0,1.36-7.39.53q.1,4.41.19,8.84c1.95.13,3.9.2,5.84.42a17.22,17.22,0,0,1,2.77.75l-.87.81-8.62.07Z"/><path class="cls-19" d="M437.77,253.73c-1.53-.14-3.08-.21-4.6-.48a1.71,1.71,0,0,1-1.18-1.09c0-.42.6-1.27.95-1.28,3.82-.07,7.65,0,11.47.06.53,0,1.06.54,1.59.83l-.4.92-5.43,1c0,3.36.06,6.84,0,10.32-.07,3-.29,5.94-.44,8.91q0-10-.11-19.93a8.61,8.61,0,0,0-.12-1l-2.43-.13Z"/><path class="cls-20" d="M449.74,274.23c-.55-.55-1.56-1.1-1.57-1.66-.11-6.44-.17-12.88,0-19.31a3.54,3.54,0,0,1,2.38-2.46,41.14,41.14,0,0,1,7.77-.06c.59,0,1.15.87,1.72,1.33-.59.45-1.18,1.25-1.79,1.27-2.27.08-4.54-.11-6.82-.19-.11-.45-.21-.89-.32-1.34-.66.8-1.86,1.58-1.9,2.41-.19,4.22-.14,8.46-.05,12.69C449.25,269.35,449.55,271.79,449.74,274.23Z"/><path class="cls-15" d="M483.47,274.53l-.82-1.24c4-2.17,4.38-6,4.47-9.91s-.48-7.46-3.18-10.45c-.08-.08.06-.36.1-.55l1.33,0,1.88,1.85,1.95,5.05c0,2.5,0,5,0,7.48l-1.05,3.37Q485.8,272.32,483.47,274.53Z"/><path class="cls-15" d="M449.74,274.23c-.19-2.44-.49-4.88-.54-7.32-.09-4.23-.14-8.47.05-12.69,0-.83,1.24-1.61,1.9-2.41.11.45.21.89.32,1.34a1,1,0,0,1-.31.3l-.12,1.41c0,1.66,0,3.32,0,5,.14.45.27.91.41,1.36l.64.3a11.54,11.54,0,0,0-.84,11,.57.57,0,0,1,.24.27l8.34.79a47.06,47.06,0,0,1-4.82.81C453.26,274.45,451.49,274.28,449.74,274.23Z"/><path class="cls-13" d="M482.84,291.68c-2.84.8-3.7,3.13-4.33,5.63l-.57,2.69c0,.93,0,1.86,0,2.79l.57,3.29,3.84,6.08-1.52.9a7.64,7.64,0,0,1-4.3-6.22l-.57-2c0-1.87,0-3.74,0-5.61.18-.71.35-1.42.53-2.13a7.29,7.29,0,0,1,4.78-6.22Z"/><path class="cls-8" d="M494.7,253.6c0-.42,0-.83.05-1.25l9.22-.79c-2.45.83-6,.74-6.93,2.26-1.06,1.7.23,4.87.49,7.4a3.06,3.06,0,0,1,.51.26c-.48,2.47-1.08,4.91-1.4,7.4a43.69,43.69,0,0,0-.1,5.25l-1.78-.9c.17-4.22.43-8.43.46-12.65C495.24,258.26,494.89,255.93,494.7,253.6Z"/><path class="cls-18" d="M482.84,291.68l-1.59-.82c3.57-2.23,9.19-.5,10.52,3.31a5.89,5.89,0,0,1-.21,2.24c-.73-.18-2-.24-2.09-.56C488.67,292.11,485.75,291.94,482.84,291.68Z"/><path class="cls-21" d="M497.53,261.22c-.26-2.53-1.55-5.7-.49-7.4.94-1.52,4.48-1.43,6.93-2.26l-9.22.79c.52-.56,1-1.57,1.58-1.61a65.13,65.13,0,0,1,7.78,0c.61,0,1.18.79,1.77,1.22-.56.48-1.05,1.27-1.69,1.41-2.11.47-5.24,0-6.18,1.23C496.88,256.05,497.61,258.94,497.53,261.22Z"/><path class="cls-11" d="M416.05,268.6c.4,1,.79,2.11,1.19,3.16L418.5,273l1.76.38-2,1-3.72-3c-.15-.51-.3-1-.46-1.53,0-.35-.05-.71-.08-1.06q.06-8.52.13-17h0c.43.69,1.14,1.36,1.21,2.09.18,1.75,0,3.53.08,5.29C415.59,262.29,415.84,265.44,416.05,268.6Z"/><path class="cls-22" d="M451.24,272.47a11.54,11.54,0,0,1,.84-11c2-.1,3.92-.28,5.87-.24.51,0,1,.72,1.51,1.11-.52.37-1,.95-1.57,1.07-2,.42-4.86,0-5.95,1.19s-.36,3.94-.46,6C451.45,271.24,451.32,271.86,451.24,272.47Z"/><path class="cls-19" d="M489.77,310.43a25.68,25.68,0,0,1-.35-4.26c.17-2.39-.35-3.83-3.16-3.45a8.84,8.84,0,0,1-2.48-.44c1-3.2,3.44-2,5.22-2.1,1-.05,3-.94,2.76,1.55-1-.06-1.91-.33-1.73,1.49A49.87,49.87,0,0,1,489.77,310.43Z"/><path class="cls-23" d="M437.77,253.73l-.71-1.86,2.43.13a8.61,8.61,0,0,1,.12,1q.06,10,.11,19.93l-1.23,1.26-.7-.59Z"/><path class="cls-24" d="M426.46,253.75l.66-2.9c.75.54,2.17,1.11,2.14,1.62-.24,5.87-.69,11.74-1.1,17.6V252.44l-.66-.2Z"/><path class="cls-17" d="M426.46,253.75l1-1.51.66.2v17.63l-1.61,2.86-1,.19-.68-.6.66-1.39c.3-.72.59-1.43.88-2.15Z"/><path class="cls-21" d="M494.7,253.6c.19,2.33.54,4.66.52,7,0,4.22-.29,8.43-.46,12.65-.18-2.75-.51-5.51-.5-8.26C494.27,261.18,494.54,257.39,494.7,253.6Z"/><path class="cls-21" d="M496.54,274.13a43.69,43.69,0,0,1,.1-5.25c.32-2.49.92-4.93,1.4-7.4l.84.13,5.89.72c-.86.4-1.7,1.12-2.57,1.15-4.56.15-4.46.09-4.62,4.72A40.47,40.47,0,0,1,496.54,274.13Z"/><path class="cls-24" d="M416.05,268.6c-.21-3.16-.46-6.31-.61-9.48-.09-1.76.1-3.54-.08-5.29-.07-.73-.78-1.4-1.21-2.09,1.27-1.76,2.19-.81,2.2.6C416.39,257.76,416.17,263.18,416.05,268.6Z"/><path class="cls-24" d="M414.15,251.75q-.07,8.5-.13,17c-.3-.62-.84-1.22-.85-1.84q-.12-6.76,0-13.54C413.17,252.84,413.8,252.29,414.15,251.75Z"/><path class="cls-18" d="M443.78,291.39c.27,3,.68,6,.75,9a66.69,66.69,0,0,1-.5,6.9Q443.91,299.34,443.78,291.39Z"/><path class="cls-14" d="M353.6,301a21.13,21.13,0,0,1-3.37.07c-1.53-.21-4.3-.56-4.33-1a47.61,47.61,0,0,1,.52-7.78v.61c.05,2.15-.61,4.78.4,6.29.72,1.09,3.68.67,5.63,1C352.87,300.28,353.22,300.74,353.6,301Z"/><path class="cls-14" d="M366.05,313.94c-.43-.69-.85-1.39-1.28-2.09l8.31-.37c-.15,2.08-.88,2.56-4.58,2.63l-.58-.9-.6.88Z"/><path class="cls-24" d="M480.82,313.06l1.52-.9,6.17-.36.75,1.39A7.39,7.39,0,0,1,480.82,313.06Z"/><path class="cls-25" d="M443.78,291.39q.12,8,.25,15.9l-.12,1.32c0,.6,0,1.19,0,1.79l.25,1.24.62,1-.73.41c-.4-.83-1.14-1.66-1.16-2.5-.11-4.84,0-9.69-.08-14.53,0-1.63-.34-3.26-.52-4.88Z"/><path class="cls-17" d="M489.26,313.19l-.75-1.39,1.26-1.37a49.87,49.87,0,0,0,.26-7.21c-.18-1.82.69-1.55,1.73-1.49,0,2.66,0,5.32.1,8C492,311.69,491.18,312.81,489.26,313.19Z"/><path class="cls-25" d="M379,290.92c.24.43.71.86.71,1.29a198.14,198.14,0,0,1-.61,20.08c0-5.2.05-10.4,0-15.6,0-1.85-.34-3.69-.52-5.54A.51.51,0,0,1,379,290.92Z"/><path class="cls-14" d="M354.18,291.72l-10.1-.68,10.39-.48Z"/><path class="cls-26" d="M485.37,252.33l-1.33,0,0,0h-.95l-4.24.26-1.1-1A5.47,5.47,0,0,1,485.37,252.33Z"/><path class="cls-24" d="M364.6,290.72c1.84-2.22,3.64-1.44,5.43.08l-1.37,1-3.25-.15Z"/><path class="cls-9" d="M368.66,291.84l1.37-1,3.81,3.73c-.07.56-.14,1.12-.22,1.68a19.36,19.36,0,0,1-2.37-1.61C370.32,293.76,369.52,292.77,368.66,291.84Z"/><path class="cls-14" d="M343.9,298.22l0,10.07Z"/><path class="cls-22" d="M424.46,313.24l1.55-.94,4.82-.17,1,1C429.39,314.92,426.93,314.72,424.46,313.24Z"/><path class="cls-14" d="M346.36,311.74q-.09-4.42-.19-8.84C346.23,305.84,346.3,308.79,346.36,311.74Z"/><path class="cls-22" d="M459.82,273.53l-8.34-.79Z"/><path class="cls-22" d="M465.36,312.34c0,.22,0,.45.05.67V313l.1.82-6-.67,1.49-.83Z"/><path class="cls-24" d="M418.28,274.37l2-1,2.14.06,1.27,1Z"/><path class="cls-8" d="M504.77,262.33l-5.89-.72Z"/><path class="cls-22" d="M436.3,305.12c0-1.87,0-3.73,0-5.6C436.31,301.39,436.3,303.25,436.3,305.12Z"/><path class="cls-26" d="M489.2,259.23l-1.95-5.05Z"/><path class="cls-26" d="M429.84,290.38l-3.24.06C427.65,288.86,428.74,289,429.84,290.38Z"/><path class="cls-26" d="M488.11,270.08l1.05-3.37Z"/><path class="cls-18" d="M478.5,306.08l-.57-3.29Z"/><path class="cls-17" d="M423.67,274.41l-1.27-1,2.44-.88.68.59c-.08.27-.17.55-.25.83Z"/><path class="cls-18" d="M477.94,300l.57-2.69Z"/><path class="cls-18" d="M476.47,297.08c-.18.71-.35,1.42-.53,2.13C476.12,298.5,476.29,297.79,476.47,297.08Z"/><path class="cls-14" d="M343.93,312.92l1.55.87Z"/><path class="cls-18" d="M476,304.82l.57,2Z"/><path class="cls-18" d="M443.89,310.4c0-.6,0-1.19,0-1.79C443.9,309.21,443.9,309.8,443.89,310.4Z"/><path class="cls-24" d="M426.38,269c-.29.72-.58,1.43-.88,2.15C425.8,270.41,426.09,269.7,426.38,269Z"/><path class="cls-14" d="M354.1,313.72l.87-.81Z"/><path class="cls-24" d="M425.27,274c.08-.28.17-.56.25-.83l1-.19Z"/><path class="cls-24" d="M373.62,296.21c.08-.56.15-1.12.22-1.68C373.77,295.09,373.7,295.65,373.62,296.21Z"/><path class="cls-22" d="M436.06,297.34l-.57-1.42Z"/><path class="cls-24" d="M418.5,273l-1.26-1.21Z"/><path class="cls-24" d="M414.1,269.83c.16.51.31,1,.46,1.53C414.41,270.85,414.26,270.34,414.1,269.83Z"/><path class="cls-14" d="M353.56,302.37l0-1.36Z"/><path class="cls-20" d="M451.44,261.2c-.14-.45-.27-.91-.41-1.36C451.17,260.29,451.3,260.75,451.44,261.2Z"/><path class="cls-20" d="M451,254.86l.12-1.41Z"/><path class="cls-17" d="M367.32,314.09l.6-.88.58.9Z"/><path class="cls-17" d="M364.6,290.72l.81,1-1.49.44-.66-.75Z"/><path class="cls-19" d="M437.79,273.63l.7.59Z"/><path class="cls-13" d="M465.51,313.77c0-.27-.07-.55-.1-.82Z"/><path class="cls-27" d="M278.09,268.78v-4.36c0-4.7,0-4.7,4.8-4.68.83,0,1.67.05,2.49.11,5.19.39,8.28,2.94,8.75,7.2.58,5.3-1.72,8.93-6.67,10.56a2.72,2.72,0,0,1-.61.15c-2.48.09-5.24.89-7.38.08-2.93-1.11-.78-4.34-1.34-6.57a10.87,10.87,0,0,1,0-2.49Z"/><path class="cls-15" d="M483.14,252.41h0Z"/><path class="cls-28" d="M430.83,312.13l-4.82.17c-1.17-1.86-3.06-3.61-3.36-5.6a38.11,38.11,0,0,1,.21-10.17c.35-2.79,2.2-5,5.17-4.89a5.46,5.46,0,0,1,5.35,4.7C434.5,301.9,435.28,307.45,430.83,312.13Z"/><path class="cls-25" d="M380.69,273V252.59h.38v20.28Z"/><path class="cls-28" d="M465.36,312.34l-4.35-.07c-1.12-1.77-2.88-3.44-3.21-5.35a32.24,32.24,0,0,1-.07-9.56c.59-4.39,2.59-5.77,7-5.68,3.84,1.94,4.33,5.6,4.42,9.22C469.26,305.09,469.4,309.45,465.36,312.34Z"/></g></g></svg>